<svg width="30" height="30" viewBox="0 0 30 30" fill="none" xmlns="http://www.w3.org/2000/svg">
<path d="M15 30C23.2843 30 30 23.2843 30 15C30 6.71573 23.2843 0 15 0C6.71573 0 0 6.71573 0 15C0 23.2843 6.71573 30 15 30Z" fill="#39236E"/>
<path d="M24.0488 7.34772C23.7751 8.53579 23.2682 9.61318 22.601 10.5036C21.935 11.3958 21.1122 12.1026 20.2305 12.5957C19.3484 13.09 18.409 13.3696 17.5084 13.4448C17.0578 13.4829 16.6168 13.4708 16.1938 13.4144C16.0676 13.3976 15.9432 13.3764 15.8204 13.3519V10.1759L10.418 13.295L5.01562 16.4141L10.418 19.5331L15.8204 22.6521V19.5339C15.9374 19.5055 16.0542 19.4759 16.1699 19.4441C16.5586 19.3375 16.9395 19.2121 17.3102 19.0689C18.0519 18.7827 18.7527 18.4253 19.3988 18.0091C20.6923 17.1768 21.7632 16.1095 22.5595 14.9245C23.3572 13.7392 23.8811 12.4357 24.1226 11.1337C24.366 9.83097 24.3241 8.53376 24.0488 7.34772Z" fill="white"/>
</svg>
