<svg width="20" height="20" viewBox="0 0 20 20" fill="none" xmlns="http://www.w3.org/2000/svg">
<path d="M7.46094 0H6.28906V2.22656H7.46094V0Z" fill="white" fill-opacity="0.35"/>
<path d="M10.5859 0.390625H9.41406V2.22656H10.5859V0.390625Z" fill="white" fill-opacity="0.35"/>
<path d="M13.7109 1.17188H12.5391V2.22656H13.7109V1.17188Z" fill="white" fill-opacity="0.35"/>
<path d="M5.42969 3.39844V10.1953H14.5703V3.39844H5.42969ZM9.44758 9.20742L7.65219 7.41207L8.48082 6.58344L9.44758 7.55016L11.5192 5.47855L12.3478 6.30719L9.44758 9.20742Z" fill="white" fill-opacity="0.35"/>
<path d="M17.8796 7.10938H15.7422V11.3672H4.25781V7.10938H2.12039L0 13.3009V13.3594H20V13.3009L17.8796 7.10938Z" fill="white" fill-opacity="0.35"/>
<path d="M20 14.5312H0V20H20V14.5312Z" fill="white" fill-opacity="0.35"/>
</svg>
