<svg width="35" height="35" viewBox="0 0 35 35" fill="none" xmlns="http://www.w3.org/2000/svg">
<path d="M13.0586 0H11.0078V3.89648H13.0586V0Z" fill="white"/>
<path d="M18.5273 0.683594H16.4766V3.89648H18.5273V0.683594Z" fill="white"/>
<path d="M23.9961 2.05078H21.9453V3.89648H23.9961V2.05078Z" fill="white"/>
<path d="M9.5 5.94727V17.8418H25.4961V5.94727H9.5ZM16.5313 16.113L13.3894 12.9711L14.8395 11.521L16.5313 13.2128L20.1566 9.58747L21.6067 11.0376L16.5313 16.113Z" fill="white"/>
<path d="M31.2893 12.4414H27.5488V19.8926H7.45117V12.4414H3.71068L0 23.2765V23.3789H35V23.2765L31.2893 12.4414Z" fill="white"/>
<path d="M35 25.4297H0V35H35V25.4297Z" fill="white"/>
</svg>
