<svg width="20" height="20" viewBox="0 0 20 20" fill="none" xmlns="http://www.w3.org/2000/svg">
<path d="M13.75 5.9375C14.4404 5.9375 15 5.37786 15 4.6875C15 3.99714 14.4404 3.4375 13.75 3.4375C13.0596 3.4375 12.5 3.99714 12.5 4.6875C12.5 5.37786 13.0596 5.9375 13.75 5.9375Z" fill="#39236E"/>
<path d="M6.25 5.9375C6.94036 5.9375 7.5 5.37786 7.5 4.6875C7.5 3.99714 6.94036 3.4375 6.25 3.4375C5.55964 3.4375 5 3.99714 5 4.6875C5 5.37786 5.55964 5.9375 6.25 5.9375Z" fill="#39236E"/>
<path d="M10 6.5625C10.6904 6.5625 11.25 6.00286 11.25 5.3125C11.25 4.62214 10.6904 4.0625 10 4.0625C9.30964 4.0625 8.75 4.62214 8.75 5.3125C8.75 6.00286 9.30964 6.5625 10 6.5625Z" fill="#39236E"/>
<path d="M2.475 3.90812C2.90156 3.38219 3.38219 2.90156 3.90812 2.475L2.83937 1.40625L3.30812 0.9375H0.9375V3.30813L1.40625 2.83938L2.475 3.90812Z" fill="#39236E"/>
<path d="M2.475 16.0919L1.40625 17.1606L0.9375 16.6919V19.0625H3.30812L2.83937 18.5937L3.90812 17.525C3.38219 17.0984 2.90156 16.6178 2.475 16.0919Z" fill="#39236E"/>
<path d="M17.523 16.0919C17.0964 16.6178 16.6158 17.0984 16.0898 17.525L17.1586 18.5937L16.6898 19.0625H19.0605V16.6919L18.5917 17.1606L17.523 16.0919Z" fill="#39236E"/>
<path d="M13.7511 6.5625C13.062 6.5625 12.432 6.88031 12.0195 7.42063C12.5098 7.92719 12.8136 8.61594 12.8136 9.375V10.9375V15.625C12.8136 15.7975 12.9536 15.9375 13.1261 15.9375C13.2986 15.9375 13.4386 15.7975 13.4386 15.625V10.3125H14.0636V15.625C14.0636 15.7975 14.2036 15.9375 14.3761 15.9375C14.5486 15.9375 14.6886 15.7975 14.6886 15.625V7.8125H15.3136V10.9375C15.6583 10.9375 15.9386 10.6572 15.9386 10.3125V8.75C15.9386 7.54406 14.957 6.5625 13.7511 6.5625Z" fill="#39236E"/>
<path d="M16.6898 0.9375L17.1586 1.40625L16.0898 2.475C16.6158 2.90156 17.0964 3.38219 17.523 3.90812L18.5917 2.83938L19.0605 3.30813V0.9375H16.6898Z" fill="#39236E"/>
<path d="M6.25 6.5625C5.04406 6.5625 4.0625 7.54406 4.0625 8.75V10.3125C4.0625 10.6572 4.34281 10.9375 4.6875 10.9375V7.8125H5.3125V15.625C5.3125 15.7975 5.4525 15.9375 5.625 15.9375C5.7975 15.9375 5.9375 15.7975 5.9375 15.625V10.3125H6.5625V15.625C6.5625 15.7975 6.7025 15.9375 6.875 15.9375C7.0475 15.9375 7.1875 15.7975 7.1875 15.625V10.9375V9.375C7.1875 8.61594 7.49125 7.92719 7.98156 7.42063C7.56906 6.88031 6.93906 6.5625 6.25 6.5625V6.5625Z" fill="#39236E"/>
<path d="M10 0.9375C5.00313 0.9375 0.9375 5.00313 0.9375 10C0.9375 14.9969 5.00313 19.0625 10 19.0625C14.9969 19.0625 19.0625 14.9969 19.0625 10C19.0625 5.00313 14.9969 0.9375 10 0.9375ZM16.5625 10.3125C16.5625 11.0019 16.0019 11.5625 15.3125 11.5625V15.625C15.3125 16.1419 14.8919 16.5625 14.375 16.5625C14.1341 16.5625 13.9163 16.4684 13.75 16.3188C13.5838 16.4688 13.3659 16.5625 13.125 16.5625C12.6081 16.5625 12.1875 16.1419 12.1875 15.625V12.0138C12.0028 12.1213 11.7913 12.1875 11.5625 12.1875V16.25C11.5625 16.7669 11.1419 17.1875 10.625 17.1875C10.3841 17.1875 10.1663 17.0934 10 16.9438C9.83375 17.0938 9.61594 17.1875 9.375 17.1875C8.85813 17.1875 8.4375 16.7669 8.4375 16.25V12.1875C8.20875 12.1875 7.99719 12.1213 7.8125 12.0138V15.625C7.8125 16.1419 7.39188 16.5625 6.875 16.5625C6.63406 16.5625 6.41625 16.4684 6.25 16.3188C6.08375 16.4688 5.86594 16.5625 5.625 16.5625C5.10813 16.5625 4.6875 16.1419 4.6875 15.625V11.5625C3.99813 11.5625 3.4375 11.0019 3.4375 10.3125V8.75C3.4375 7.6025 4.12906 6.61469 5.11688 6.17781C4.66719 5.835 4.375 5.29531 4.375 4.6875C4.375 3.65344 5.21594 2.8125 6.25 2.8125C7.28406 2.8125 8.125 3.65344 8.125 4.6875C8.125 5.29563 7.83281 5.83531 7.38281 6.17813C7.80313 6.36313 8.17469 6.64906 8.46375 7.02188C8.59125 6.93844 8.72594 6.865 8.86656 6.80281C8.41719 6.46 8.125 5.92031 8.125 5.3125C8.125 4.27844 8.96594 3.4375 10 3.4375C11.0341 3.4375 11.875 4.27844 11.875 5.3125C11.875 5.92031 11.5828 6.46 11.1331 6.80281C11.2738 6.865 11.4084 6.93844 11.5359 7.02188C11.8253 6.64906 12.1969 6.36313 12.6169 6.17813C12.1672 5.83531 11.875 5.29563 11.875 4.6875C11.875 3.65344 12.7159 2.8125 13.75 2.8125C14.7841 2.8125 15.625 3.65344 15.625 4.6875C15.625 5.29531 15.3328 5.835 14.8831 6.17781C15.8709 6.61469 16.5625 7.6025 16.5625 8.75V10.3125Z" fill="#39236E"/>
<path d="M10 7.1875C8.79406 7.1875 7.8125 8.16906 7.8125 9.375V10.9375C7.8125 11.2822 8.09281 11.5625 8.4375 11.5625V8.4375H9.0625V16.25C9.0625 16.4225 9.2025 16.5625 9.375 16.5625C9.5475 16.5625 9.6875 16.4225 9.6875 16.25V10.9375H10.3125V16.25C10.3125 16.4225 10.4525 16.5625 10.625 16.5625C10.7975 16.5625 10.9375 16.4225 10.9375 16.25V8.4375H11.5625V11.5625C11.9072 11.5625 12.1875 11.2822 12.1875 10.9375V9.375C12.1875 8.16906 11.2059 7.1875 10 7.1875Z" fill="#39236E"/>
</svg>
