<svg width="20" height="20" viewBox="0 0 20 20" fill="none" xmlns="http://www.w3.org/2000/svg">
<path d="M10.001 6.84387C9.92071 6.84387 9.85547 6.92243 9.85547 7.0186C9.85547 7.11517 9.92071 7.19368 10.001 7.19368C10.0809 7.19368 10.1465 7.11517 10.1465 7.0186C10.1465 6.92243 10.0809 6.84387 10.001 6.84387Z" fill="#39236E"/>
<path d="M10 0C4.46051 0 0 4.82544 0 8.82069C0 10.8312 1.05402 11.9799 2.58513 12.6421V15.3296V15.33C2.58547 17.357 5.90537 20 10 20C14.095 20 17.4149 17.3569 17.4152 15.33V15.3296V12.6421C18.946 11.9799 20 10.8308 20 8.82069C20 4.82544 15.5395 0 10 0ZM17.4152 10.8536L17.4042 10.3263C17.2614 9.85555 15.9117 9.44728 13.9442 9.21047C13.9518 9.35311 13.9594 9.49575 13.9594 9.6412C13.9594 10.3451 13.8629 11.0167 13.6941 11.6376C13.6822 11.6817 13.6725 11.7274 13.6595 11.7711C13.4717 12.4129 13.2003 12.9927 12.8668 13.4886C12.145 14.562 11.1279 15.2355 9.99966 15.2355C8.87134 15.2355 7.85461 14.562 7.13282 13.4886C6.79927 12.9927 6.5279 12.4128 6.34013 11.7711C6.32721 11.7274 6.31751 11.6817 6.30552 11.6376C6.13672 11.0167 6.04018 10.3451 6.04018 9.6412C6.04018 9.49575 6.04784 9.35311 6.05549 9.21047C4.08825 9.44728 2.72922 9.85943 2.58636 10.3298L2.58513 10.8539C1.79478 10.3908 1.36363 9.73891 1.36363 8.82059C1.36363 5.99643 5.07206 1.64103 10 1.64103C14.9279 1.64103 18.6364 5.99648 18.6364 8.82059C18.6364 9.73896 18.2053 10.3908 17.4152 10.8536Z" fill="#39236E"/>
<path d="M10.0008 4.92316C8.21601 4.92316 6.76953 7.0357 6.76953 9.64122C6.76953 12.2466 8.21605 14.3593 10.0008 14.3593C11.786 14.3593 13.2326 12.2467 13.2326 9.64122C13.2326 7.03576 11.786 4.92316 10.0008 4.92316ZM12.1186 10.1204C12.1545 10.1396 12.1802 10.1789 12.1875 10.2249L12.3633 11.3443C12.3736 11.4097 12.3453 11.4754 12.2947 11.5026C12.2441 11.5302 12.1845 11.5122 12.1505 11.4597L11.9614 11.1661C11.5918 11.8864 11.0106 12.4898 10.3401 12.6465L10.086 12.9518C10.0394 13.0079 9.96351 13.0079 9.91694 12.9518L9.66287 12.6465C8.99237 12.4898 8.41109 11.8864 8.04122 11.1661L7.85209 11.4597C7.81845 11.5122 7.75887 11.5302 7.70831 11.5026C7.65774 11.4754 7.62942 11.4097 7.63971 11.3443L7.81548 10.2249C7.82283 10.1789 7.84848 10.1396 7.88442 10.1204C7.92006 10.1008 7.96131 10.104 7.99495 10.1284L8.80567 10.7165C8.85326 10.7509 8.87486 10.8199 8.85823 10.8836C8.84127 10.9473 8.791 10.9882 8.73571 10.9837L8.41913 10.9573C8.72112 11.4461 9.17618 11.6468 9.69826 11.6981V8.49612H9.43752C9.39524 8.53374 9.34361 8.55697 9.28739 8.55697C9.1479 8.55697 9.03469 8.42073 9.03469 8.25291C9.03469 8.08458 9.1479 7.94844 9.28739 7.94844C9.344 7.94844 9.39558 7.97204 9.43752 8.00971H9.69826V7.56977C9.54975 7.45082 9.45185 7.24851 9.45185 7.01851C9.45185 6.65395 9.69826 6.35706 10.0016 6.35706C10.3048 6.35706 10.5512 6.65395 10.5512 7.01851C10.5512 7.24851 10.4533 7.45082 10.3048 7.56977V8.00971H10.5655C10.6075 7.97204 10.6591 7.94844 10.7156 7.94844C10.8551 7.94844 10.9684 8.08458 10.9684 8.25291C10.9684 8.42073 10.8551 8.55697 10.7156 8.55697C10.659 8.55697 10.6078 8.53374 10.5655 8.49612H10.3048V11.6981C10.8268 11.6468 11.2819 11.4461 11.5839 10.9573L11.2673 10.9837C11.2121 10.9882 11.1618 10.9473 11.1448 10.8836C11.1282 10.8199 11.1498 10.7509 11.1974 10.7165L12.0082 10.1284C12.0417 10.104 12.083 10.1008 12.1186 10.1204Z" fill="#39236E"/>
</svg>
