<svg width="20" height="20" viewBox="0 0 20 20" fill="none" xmlns="http://www.w3.org/2000/svg">
<path d="M6.89453 16.9492V20H7.58417V16.6102H7.23935C7.04901 16.6102 6.89453 16.762 6.89453 16.9492Z" fill="#39236E"/>
<path d="M0 18.983V20H6.20714V18.644H0.344841C0.154489 18.644 0 18.7959 0 18.983Z" fill="#39236E"/>
<path d="M19.6552 18.644H13.793V20H20.0001V18.983C20.0001 18.7959 19.8456 18.644 19.6552 18.644Z" fill="#39236E"/>
<path d="M12.7589 16.6102H12.4141V20H13.1037V16.9492C13.1037 16.762 12.9492 16.6102 12.7589 16.6102Z" fill="#39236E"/>
<path d="M8.27734 16.6102H11.7257V20H8.27734V16.6102Z" fill="#39236E"/>
<path d="M10.0015 3.38981C10.9538 3.38981 11.7257 2.63097 11.7257 1.6949C11.7257 0.758834 10.9538 0 10.0015 0C9.04929 0 8.27734 0.758834 8.27734 1.6949C8.27734 2.63097 9.04929 3.38981 10.0015 3.38981Z" fill="#39236E"/>
<path d="M10.0011 6.77965C10.1915 6.77965 10.3459 6.62788 10.3459 6.44067C10.3459 6.25345 10.1915 6.10168 10.0011 6.10168C9.81064 6.10168 9.65625 6.25345 9.65625 6.44067C9.65625 6.62788 9.81064 6.77965 10.0011 6.77965Z" fill="#39236E"/>
<path d="M12.7597 8.81354V6.10167C12.7597 5.15354 12.2638 4.32032 11.5141 3.83557L10.4937 5.55218C10.8148 5.72472 11.0355 6.05625 11.0355 6.44066C11.0355 7.00134 10.5713 7.45761 10.0009 7.45761C9.43056 7.45761 8.9664 7.00134 8.9664 6.44066C8.9664 6.05625 9.1871 5.72472 9.50815 5.55218L8.48776 3.83557C7.73807 4.32032 7.24219 5.15354 7.24219 6.10167V8.81354C7.24219 9.37523 7.70531 9.83049 8.27672 9.83049H8.62156V15.5932C8.62156 15.9678 8.9302 16.2712 9.31125 16.2712C9.6923 16.2712 10.0009 15.9678 10.0009 15.5932C10.0009 15.9678 10.3096 16.2712 10.6906 16.2712C11.0717 16.2712 11.3803 15.9678 11.3803 15.5932V9.83049H11.7251C12.2966 9.83049 12.7597 9.37523 12.7597 8.81354V8.81354Z" fill="#39236E"/>
<path d="M9.99941 5.00471L10.8894 3.53689C10.6098 3.44299 10.3111 3.38977 9.99941 3.38977C9.68767 3.38977 9.38904 3.44299 9.10938 3.53655L9.99941 5.00471Z" fill="#39236E"/>
<path d="M16.8961 5.42371C17.8483 5.42371 18.6203 4.66487 18.6203 3.72879C18.6203 2.79272 17.8483 2.03387 16.8961 2.03387C15.9438 2.03387 15.1719 2.79272 15.1719 3.72879C15.1719 4.66487 15.9438 5.42371 16.8961 5.42371Z" fill="#39236E"/>
<path d="M15.1751 11.8644H15.52V17.6271C15.52 18.0017 15.8286 18.3051 16.2097 18.3051C16.5907 18.3051 16.8993 18.0017 16.8993 17.6271C16.8993 18.0017 17.208 18.3051 17.589 18.3051C17.9701 18.3051 18.2787 18.0017 18.2787 17.6271V11.8644H18.6235C19.1949 11.8644 19.658 11.4091 19.658 10.8474V8.13557C19.658 6.63794 18.4228 5.42371 16.8993 5.42371C15.3758 5.42371 14.1406 6.63794 14.1406 8.13557V10.8474C14.1406 11.4091 14.6037 11.8644 15.1751 11.8644Z" fill="#39236E"/>
<path d="M3.10311 5.42371C4.05535 5.42371 4.8273 4.66487 4.8273 3.72879C4.8273 2.79272 4.05535 2.03387 3.10311 2.03387C2.15086 2.03387 1.37891 2.79272 1.37891 3.72879C1.37891 4.66487 2.15086 5.42371 3.10311 5.42371Z" fill="#39236E"/>
<path d="M1.37827 11.8644H1.72311V17.6271C1.72311 18.0017 2.03174 18.3051 2.41278 18.3051C2.79383 18.3051 3.10246 18.0017 3.10246 17.6271C3.10246 18.0017 3.41109 18.3051 3.79214 18.3051C4.17319 18.3051 4.48182 18.0017 4.48182 17.6271V11.8644H4.82666C5.39805 11.8644 5.86117 11.4091 5.86117 10.8474V8.13557C5.86117 6.63794 4.62596 5.42371 3.10246 5.42371C1.57896 5.42371 0.34375 6.63794 0.34375 8.13557V10.8474C0.34375 11.4091 0.806869 11.8644 1.37827 11.8644Z" fill="#39236E"/>
</svg>
