<svg width="20" height="20" viewBox="0 0 20 20" fill="none" xmlns="http://www.w3.org/2000/svg">
<path d="M15.8704 11.8309L13.1506 10.4425C13.4997 9.65922 13.4209 8.78436 12.9152 8.04191L15.146 6.47325C16.3715 7.075 18.0046 6.95755 19.0699 6.11899C20.31 5.14299 20.31 3.56043 19.0699 2.58437C17.8298 1.60831 15.8191 1.60831 14.5791 2.58437C13.6022 3.35327 13.3955 4.49808 13.9573 5.42679L11.7263 6.9957C10.6583 6.41395 9.29595 6.31225 8.12519 6.6918L5.55244 3.90513C6.47532 2.95142 6.38429 1.58406 5.27731 0.712655C4.07008 -0.237552 2.11276 -0.237552 0.905467 0.712655C-0.301822 1.66291 -0.301822 3.20357 0.905467 4.15378C1.77233 4.83608 3.02554 5.02834 4.11036 4.73103L6.68343 7.51795C5.41281 8.69101 5.48053 10.4544 6.88938 11.5633C6.91644 11.5846 6.94427 11.6045 6.97215 11.6251L4.47931 15.0689C3.44322 14.876 2.3081 15.0971 1.50006 15.7332C0.259991 16.7093 0.259991 18.2919 1.50006 19.2679C2.74013 20.2439 4.75082 20.2439 5.99082 19.2679C7.21793 18.3021 7.23006 16.7427 6.02849 15.7644L8.52114 12.321C9.7729 12.6039 11.1725 12.3699 12.1785 11.6194L14.9008 13.0089C14.727 13.6442 14.953 14.3338 15.5803 14.8275C16.5629 15.601 18.1558 15.601 19.1384 14.8275C20.121 14.0542 20.121 12.8003 19.1384 12.0269C18.2476 11.326 16.8549 11.2605 15.8704 11.8309ZM2.57585 16.9454C2.51544 16.9993 2.45859 17.0502 2.40281 17.0941C2.33331 17.1487 2.23835 17.2153 2.12051 17.244C1.97249 17.2799 1.82124 17.2483 1.70531 17.157C1.40217 16.9185 1.5181 16.4671 1.97503 16.1076C2.4321 15.7478 3.00534 15.6565 3.30861 15.8952C3.42448 15.9863 3.46469 16.1055 3.41895 16.222C3.38262 16.3148 3.298 16.3897 3.22857 16.4442C3.1728 16.488 3.10813 16.5328 3.03958 16.5803C2.9605 16.6351 2.87855 16.6918 2.79787 16.7552C2.71726 16.8186 2.64541 16.8831 2.57585 16.9454ZM15.0541 2.95852C15.511 2.59887 16.0844 2.50752 16.3875 2.74617C16.5034 2.83732 16.5437 2.95642 16.4979 3.07302C16.4616 3.16582 16.3769 3.24072 16.3075 3.29532C16.2519 3.33907 16.1872 3.38382 16.1186 3.43132C16.0394 3.48617 15.9576 3.54278 15.8769 3.60623C15.7961 3.66978 15.7242 3.73433 15.6545 3.79663C15.5943 3.85043 15.5373 3.90148 15.4817 3.94528C15.4123 3.99993 15.3172 4.06653 15.1993 4.09518C15.0512 4.13113 14.9 4.09948 14.7841 4.00823C14.4812 3.76958 14.5971 3.31812 15.0541 2.95852ZM1.95286 1.89271C1.89391 1.94521 1.83858 1.99481 1.78465 2.03746C1.71712 2.09062 1.6245 2.15537 1.50965 2.18342C1.36551 2.21832 1.21826 2.18757 1.10538 2.09887C0.810243 1.86651 0.923318 1.42706 1.36825 1.07696C1.81311 0.726755 2.37118 0.637855 2.66644 0.870206C2.77926 0.959007 2.81858 1.07496 2.77392 1.18836C2.73829 1.27871 2.65615 1.35161 2.58856 1.40466C2.53431 1.44736 2.47129 1.49101 2.40459 1.53706C2.32753 1.59036 2.24775 1.64556 2.16929 1.70736C2.09071 1.76921 2.02052 1.83211 1.95286 1.89271ZM7.45697 7.78806C8.00284 7.35835 8.68751 7.24935 9.04973 7.5344C9.18822 7.64345 9.2363 7.78561 9.18174 7.92491C9.13803 8.03581 9.03709 8.12516 8.95413 8.19051C8.88762 8.24286 8.81024 8.29611 8.72842 8.35291C8.63403 8.41846 8.5362 8.48601 8.43977 8.56186C8.34334 8.63781 8.25745 8.71476 8.17436 8.78921C8.1022 8.85356 8.03429 8.91446 7.96784 8.96671C7.88488 9.03221 7.77136 9.11151 7.63046 9.14582C7.45361 9.18877 7.27294 9.15102 7.13427 9.04196C6.7723 8.75666 6.9111 8.21776 7.45697 7.78806ZM16.296 13.1052C16.2409 13.1485 16.1654 13.2014 16.0721 13.224C15.9549 13.2525 15.8353 13.2274 15.7432 13.1552C15.5029 12.9661 15.5947 12.6085 15.957 12.3235C16.3189 12.0385 16.7732 11.9662 17.0135 12.1554C17.1052 12.2276 17.1371 12.3219 17.1009 12.4144C17.0722 12.4879 17.005 12.5472 16.9501 12.5904C16.906 12.625 16.8548 12.6605 16.8005 12.6982C16.738 12.7415 16.6729 12.7865 16.6091 12.8367C16.5451 12.887 16.4879 12.938 16.433 12.9875C16.3851 13.0303 16.34 13.0705 16.296 13.1052Z" fill="#46307B"/>
</svg>
