<svg width="35" height="35" viewBox="0 0 35 35" fill="none" xmlns="http://www.w3.org/2000/svg">
<path d="M25.5829 20.7041L21.8366 18.2743C22.3174 16.9036 22.2089 15.3726 21.5123 14.0733L24.585 11.3282C26.2731 12.3813 28.5226 12.1757 29.99 10.7082C31.6981 9.00023 31.6981 6.23075 29.99 4.52265C28.2818 2.81455 25.5122 2.81455 23.8043 4.52265C22.4587 5.86823 22.1739 7.87165 22.9478 9.49688L19.8747 12.2425C18.4036 11.2244 16.5271 11.0464 14.9145 11.7107L11.3707 6.83398C12.6419 5.16499 12.5165 2.77211 10.9917 1.24715C9.32888 -0.415716 6.63281 -0.415716 4.96987 1.24715C3.30692 2.9101 3.30692 5.60625 4.96987 7.26912C6.1639 8.46315 7.89011 8.79959 9.38435 8.27931L12.9286 13.1564C11.1784 15.2093 11.2716 18.2953 13.2122 20.2358C13.2495 20.273 13.2878 20.3079 13.3262 20.344L9.89255 26.3705C8.46542 26.033 6.90188 26.4199 5.78887 27.533C4.08077 29.2412 4.08077 32.0109 5.78887 33.7188C7.49697 35.4269 10.2665 35.4269 11.9745 33.7188C13.6648 32.0287 13.6815 29.2998 12.0264 27.5877L15.4599 21.5618C17.1841 22.0569 19.1119 21.6474 20.4975 20.3339L24.2474 22.7656C24.008 23.8774 24.3192 25.0842 25.1833 25.9481C26.5368 27.3017 28.7309 27.3017 30.0843 25.9481C31.4378 24.5949 31.4378 22.4006 30.0843 21.0471C28.8572 19.8205 26.939 19.7059 25.5829 20.7041ZM7.27069 29.6545C7.18748 29.7488 7.10916 29.8379 7.03234 29.9146C6.93661 30.0103 6.8058 30.1268 6.64349 30.177C6.43961 30.2399 6.23127 30.1845 6.07158 30.0248C5.65403 29.6073 5.81372 28.8174 6.44311 28.1882C7.07268 27.5587 7.86228 27.3989 8.28001 27.8166C8.43961 27.9761 8.495 28.1846 8.432 28.3885C8.38195 28.5509 8.26539 28.682 8.16976 28.7774C8.09293 28.854 8.00386 28.9324 7.90944 29.0156C7.80051 29.1115 7.68763 29.2106 7.5765 29.3216C7.46547 29.4326 7.3665 29.5455 7.27069 29.6545ZM24.4585 5.17741C25.0879 4.54802 25.8777 4.38816 26.2952 4.8058C26.4547 4.96531 26.5103 5.17374 26.4472 5.37779C26.3971 5.54019 26.2805 5.67127 26.185 5.76682C26.1083 5.84338 26.0192 5.92169 25.9247 6.00482C25.8157 6.10081 25.703 6.19986 25.5918 6.3109C25.4806 6.42211 25.3815 6.53507 25.2855 6.6441C25.2026 6.73825 25.124 6.82759 25.0475 6.90424C24.9519 6.99988 24.8208 7.11643 24.6585 7.16657C24.4545 7.22948 24.2462 7.17409 24.0866 7.0144C23.6693 6.59676 23.829 5.80672 24.4585 5.17741ZM6.41257 3.31225C6.33137 3.40413 6.25516 3.49093 6.18087 3.56556C6.08786 3.65858 5.96028 3.77189 5.80208 3.82098C5.60354 3.88205 5.40072 3.82824 5.24523 3.67302C4.8387 3.2664 4.99445 2.49736 5.60731 1.88468C6.22007 1.27182 6.98876 1.11625 7.39547 1.52286C7.55087 1.67826 7.60503 1.88118 7.54352 2.07963C7.49443 2.23774 7.38129 2.36532 7.28819 2.45816C7.21346 2.53288 7.12666 2.60927 7.03479 2.68986C6.92865 2.78313 6.81875 2.87973 6.71069 2.98789C6.60245 3.09612 6.50576 3.2062 6.41257 3.31225ZM13.994 13.6291C14.7459 12.8771 15.689 12.6864 16.1879 13.1852C16.3787 13.3761 16.4449 13.6248 16.3698 13.8686C16.3096 14.0627 16.1705 14.219 16.0563 14.3334C15.9646 14.425 15.8581 14.5182 15.7454 14.6176C15.6153 14.7323 15.4806 14.8505 15.3478 14.9833C15.2149 15.1162 15.0966 15.2508 14.9822 15.3811C14.8828 15.4937 14.7893 15.6003 14.6977 15.6918C14.5835 15.8064 14.4271 15.9452 14.233 16.0052C13.9894 16.0803 13.7406 16.0143 13.5495 15.8234C13.051 15.3242 13.2422 14.3811 13.994 13.6291ZM26.1691 22.9342C26.0932 23.01 25.9892 23.1025 25.8608 23.1421C25.6992 23.1919 25.5345 23.148 25.4077 23.0216C25.0767 22.6908 25.2031 22.065 25.7021 21.5662C26.2006 21.0674 26.8264 20.9409 27.1574 21.272C27.2837 21.3983 27.3276 21.5634 27.2778 21.7252C27.2382 21.8539 27.1457 21.9576 27.07 22.0333C27.0093 22.0938 26.9388 22.156 26.864 22.2218C26.7779 22.2976 26.6883 22.3764 26.6003 22.4643C26.5122 22.5523 26.4335 22.6416 26.3579 22.7282C26.2918 22.803 26.2297 22.8735 26.1691 22.9342Z" fill="white"/>
</svg>
