<svg width="35" height="35" viewBox="0 0 35 35" fill="none" xmlns="http://www.w3.org/2000/svg">
<path d="M27.7732 20.7042L23.0136 18.2744C23.6245 16.9037 23.4866 15.3727 22.6015 14.0734L26.5054 11.3282C28.6501 12.3813 31.5081 12.1758 33.3724 10.7083C35.5425 9.00026 35.5425 6.23077 33.3724 4.52266C31.2022 2.81455 27.6834 2.81455 25.5135 4.52266C23.8039 5.86825 23.4422 7.87167 24.4254 9.49691L20.521 12.2425C18.652 11.2244 16.2679 11.0465 14.2191 11.7107L9.71676 6.834C11.3318 5.165 11.1725 2.77212 9.23529 1.24715C7.12265 -0.415717 3.69732 -0.415717 1.58457 1.24715C-0.528189 2.91011 -0.528189 5.60627 1.58457 7.26914C3.10157 8.46318 5.2947 8.79962 7.19313 8.27934L11.696 13.1565C9.47241 15.2093 9.59092 18.2953 12.0564 20.2358C12.1038 20.2731 12.1525 20.308 12.2013 20.3441L7.83879 26.3706C6.02564 26.0331 4.03917 26.4199 2.6251 27.5331C0.454985 29.2413 0.454985 32.011 2.6251 33.7189C4.79522 35.427 8.31393 35.427 10.4839 33.7189C12.6314 32.0288 12.6526 29.2999 10.5499 27.5878L14.912 21.5619C17.1026 22.057 19.5518 21.6475 21.3123 20.334L26.0764 22.7656C25.7723 23.8774 26.1677 25.0842 27.2655 25.9482C28.9851 27.3018 31.7727 27.3018 33.4922 25.9482C35.2118 24.5949 35.2118 22.4007 33.4922 21.0472C31.9332 19.8205 29.4961 19.706 27.7732 20.7042ZM4.50774 29.6546C4.40202 29.7489 4.30252 29.838 4.20492 29.9147C4.0833 30.0104 3.9171 30.1269 3.71089 30.1771C3.45186 30.24 3.18717 30.1846 2.98429 30.0249C2.45379 29.6074 2.65668 28.8175 3.45631 28.1883C4.25617 27.5588 5.25935 27.399 5.79007 27.8167C5.99284 27.9761 6.06321 28.1847 5.98317 28.3886C5.91958 28.5509 5.77151 28.6821 5.65 28.7775C5.55239 28.8541 5.43922 28.9324 5.31927 29.0157C5.18087 29.1116 5.03746 29.2107 4.89628 29.3217C4.7552 29.4327 4.62947 29.5456 4.50774 29.6546ZM26.3447 5.17743C27.1443 4.54804 28.1477 4.38817 28.6782 4.80581C28.8809 4.96533 28.9515 5.17375 28.8713 5.37781C28.8077 5.54021 28.6595 5.67129 28.5381 5.76684C28.4408 5.8434 28.3276 5.92171 28.2075 6.00484C28.069 6.10083 27.9258 6.19988 27.7845 6.31092C27.6432 6.42213 27.5174 6.53509 27.3954 6.64412C27.29 6.73827 27.1902 6.82761 27.0931 6.90426C26.9716 6.9999 26.805 7.11645 26.5988 7.16659C26.3396 7.2295 26.075 7.17411 25.8722 7.01442C25.342 6.59678 25.5449 5.80674 26.3447 5.17743ZM3.41751 3.31226C3.31435 3.40414 3.21752 3.49094 3.12314 3.56558C3.00497 3.65859 2.84288 3.7719 2.64189 3.82099C2.38965 3.88207 2.13196 3.82825 1.93441 3.67303C1.41793 3.26641 1.61581 2.49736 2.39443 1.88468C3.17294 1.27183 4.14956 1.11625 4.66627 1.52287C4.8637 1.67827 4.93252 1.88118 4.85437 2.07963C4.792 2.23775 4.64826 2.36533 4.52998 2.45816C4.43504 2.53289 4.32476 2.60928 4.20803 2.68987C4.07318 2.78314 3.93356 2.87974 3.79626 2.98789C3.65875 3.09613 3.53591 3.20621 3.41751 3.31226ZM13.0497 13.6291C14.005 12.8772 15.2031 12.6864 15.837 13.1853C16.0794 13.3761 16.1635 13.6249 16.068 13.8686C15.9916 14.0627 15.8149 14.2191 15.6697 14.3334C15.5533 14.4251 15.4179 14.5182 15.2747 14.6176C15.1095 14.7324 14.9383 14.8506 14.7696 14.9833C14.6008 15.1162 14.4505 15.2509 14.3051 15.3812C14.1788 15.4938 14.06 15.6004 13.9437 15.6918C13.7985 15.8064 13.5999 15.9452 13.3533 16.0052C13.0438 16.0804 12.7276 16.0143 12.485 15.8235C11.8515 15.3242 12.0944 14.3811 13.0497 13.6291ZM28.518 22.9343C28.4215 23.01 28.2895 23.1025 28.1263 23.1422C27.921 23.1919 27.7117 23.1481 27.5506 23.0217C27.1301 22.6908 27.2907 22.065 27.9247 21.5663C28.558 21.0675 29.3531 20.941 29.7737 21.2721C29.9341 21.3984 29.9899 21.5635 29.9266 21.7253C29.8763 21.854 29.7588 21.9577 29.6626 22.0333C29.5855 22.0939 29.4959 22.156 29.4008 22.2219C29.2914 22.2977 29.1776 22.3764 29.0659 22.4644C28.9539 22.5524 28.8539 22.6417 28.7578 22.7283C28.6739 22.8031 28.5949 22.8735 28.518 22.9343Z" fill="white" fill-opacity="0.35"/>
</svg>
