<svg width="16" height="16" viewBox="0 0 16 16" fill="none" xmlns="http://www.w3.org/2000/svg">
<path d="M15.7314 7.23054L13.3066 4.62645V1.61828C13.3066 1.07436 12.8961 0.633557 12.3889 0.633557C11.8828 0.633557 11.4724 1.07436 11.4724 1.61828V2.65676L9.66688 0.717736C8.77422 -0.240383 7.22217 -0.238684 6.33154 0.71947L0.268439 7.23054C-0.0894796 7.61568 -0.0894796 8.23885 0.268439 8.6234C0.626519 9.00843 1.20793 9.00843 1.56588 8.6234L7.62841 2.11215C7.8259 1.90116 8.174 1.90116 8.37047 2.11152L14.434 8.6234C14.6138 8.81593 14.8482 8.91169 15.0826 8.91169C15.3174 8.91169 15.5522 8.81582 15.7315 8.6234C16.0895 8.23889 16.0895 7.61571 15.7314 7.23054Z" fill="#39236E"/>
<path d="M8.3208 3.9814C8.14465 3.79233 7.85943 3.79233 7.6838 3.9814L2.35068 9.70696C2.26649 9.79735 2.21875 9.92075 2.21875 10.0495V14.2255C2.21875 15.2055 2.95862 16 3.87108 16H6.51151V11.6086H9.49251V16H12.133C13.0454 16 13.7853 15.2055 13.7853 14.2256V10.0495C13.7853 9.92075 13.738 9.79735 13.6533 9.70696L8.3208 3.9814Z" fill="#39236E"/>
</svg>
