<svg width="20" height="20" viewBox="0 0 20 20" fill="none" xmlns="http://www.w3.org/2000/svg">
<g clip-path="url(#clip0)">
<path d="M19.6643 9.10439L16.6332 6.07329V2.57187C16.6332 1.93876 16.1202 1.42568 15.4861 1.42568C14.8535 1.42568 14.3405 1.93876 14.3405 2.57187V3.78063L12.0836 1.52366C10.9678 0.408433 9.02771 0.410411 7.91442 1.52568L0.335548 9.10439C-0.111849 9.55268 -0.111849 10.278 0.335548 10.7256C0.783148 11.1738 1.50992 11.1738 1.95736 10.7256L9.53551 3.14672C9.78238 2.90114 10.2175 2.90114 10.4631 3.14599L18.0425 10.7256C18.2673 10.9497 18.5603 11.0612 18.8532 11.0612C19.1468 11.0612 19.4403 10.9496 19.6643 10.7256C20.1119 10.2781 20.1119 9.55272 19.6643 9.10439Z" fill="white"/>
<path d="M10.401 5.3224C10.1808 5.10233 9.82429 5.10233 9.60475 5.3224L2.93836 11.9868C2.83311 12.092 2.77344 12.2357 2.77344 12.3856V17.2464C2.77344 18.387 3.69827 19.3118 4.83885 19.3118H8.13939V14.2003H11.8656V19.3118H15.1662C16.3068 19.3118 17.2316 18.387 17.2316 17.2464V12.3856C17.2316 12.2357 17.1724 12.092 17.0667 11.9868L10.401 5.3224Z" fill="white"/>
</g>
<defs>
<clipPath id="clip0">
<rect width="20" height="20" fill="white"/>
</clipPath>
</defs>
</svg>
