<svg width="20" height="20" viewBox="0 0 20 20" fill="none" xmlns="http://www.w3.org/2000/svg">
<path d="M19.6643 9.03818L16.6332 5.78306V2.02285C16.6332 1.34295 16.1202 0.791946 15.4861 0.791946C14.8535 0.791946 14.3405 1.34295 14.3405 2.02285V3.32095L12.0836 0.89717C10.9678 -0.300479 9.02771 -0.298355 7.91443 0.899337L0.335548 9.03818C-0.111849 9.5196 -0.111849 10.2986 0.335548 10.7792C0.783148 11.2605 1.50992 11.2605 1.95736 10.7792L9.53551 2.64019C9.78238 2.37646 10.2175 2.37646 10.4631 2.63941L18.0425 10.7792C18.2673 11.0199 18.5603 11.1396 18.8532 11.1396C19.1468 11.1396 19.4403 11.0198 19.6643 10.7792C20.1119 10.2986 20.1119 9.51964 19.6643 9.03818Z" fill="white" fill-opacity="0.35"/>
<path d="M10.401 4.97675C10.1808 4.74042 9.82429 4.74042 9.60475 4.97675L2.93836 12.1337C2.83311 12.2467 2.77344 12.4009 2.77344 12.5619V17.7819C2.77344 19.0069 3.69827 20 4.83885 20H8.13939V14.5108H11.8656V20H15.1662C16.3068 20 17.2316 19.0069 17.2316 17.782V12.5619C17.2316 12.4009 17.1724 12.2467 17.0667 12.1337L10.401 4.97675Z" fill="white" fill-opacity="0.35"/>
</svg>
