<svg width="35" height="35" viewBox="0 0 35 35" fill="none" xmlns="http://www.w3.org/2000/svg">
<path d="M14.7656 35H5.46875C2.45319 35 0 32.5468 0 29.5312V5.46875C0 2.45319 2.45319 0 5.46875 0H14.7656C17.7812 0 20.2344 2.45319 20.2344 5.46875V9.29688C20.2344 10.052 19.6223 10.6641 18.8672 10.6641C18.112 10.6641 17.5 10.052 17.5 9.29688V5.46875C17.5 3.96111 16.2733 2.73438 14.7656 2.73438H5.46875C3.96111 2.73438 2.73438 3.96111 2.73438 5.46875V29.5312C2.73438 31.0389 3.96111 32.2656 5.46875 32.2656H14.7656C16.2733 32.2656 17.5 31.0389 17.5 29.5312V25.7715C17.5 25.0163 18.112 24.4043 18.8672 24.4043C19.6223 24.4043 20.2344 25.0163 20.2344 25.7715V29.5312C20.2344 32.5468 17.7812 35 14.7656 35ZM27.5267 26.6321L33.7904 20.4053C34.5695 19.6306 34.9987 18.5988 34.9987 17.5003C34.9987 16.4014 34.5695 15.3696 33.7904 14.595L27.5267 8.36815C26.7579 7.60391 25.6134 7.37907 24.6112 7.79617C23.6131 8.21114 22.9682 9.17645 22.9682 10.255V16.1331H6.83594C6.08078 16.1331 5.46875 16.7451 5.46875 17.5003C5.46875 18.2554 6.08078 18.8675 6.83594 18.8675H22.9682C24.4761 18.8675 25.7026 17.6407 25.7026 16.1331V10.4107L31.8624 16.5342C32.1217 16.7918 32.2643 17.1347 32.2643 17.5003C32.2643 17.8656 32.1217 18.2087 31.8624 18.4661L25.7026 24.5899V23.2425C25.7026 22.4873 25.0906 21.8753 24.3354 21.8753C23.5802 21.8753 22.9682 22.4873 22.9682 23.2425V24.7453C22.9682 25.8238 23.6134 26.7891 24.6115 27.2044C24.9458 27.3435 25.2962 27.411 25.643 27.411C26.3354 27.411 27.0145 27.1413 27.5267 26.6321V26.6321Z" fill="white"/>
</svg>
