<svg width="70" height="70" viewBox="0 0 70 70" fill="none" xmlns="http://www.w3.org/2000/svg">
<path d="M55.5464 41.4084L46.0272 36.5488C47.249 33.8074 46.9733 30.7454 45.203 28.1468L53.0109 22.6564C57.3002 24.7626 63.0162 24.3515 66.7448 21.4166C71.0851 18.0005 71.0851 12.4615 66.7448 9.04532C62.4044 5.62911 55.3667 5.62911 51.0269 9.04532C47.6078 11.7365 46.8844 15.7433 48.8507 18.9938L41.042 24.485C37.3041 22.4489 32.5358 22.0929 28.4382 23.4214L19.4335 13.668C22.6636 10.33 22.345 5.54423 18.4706 2.4943C14.2453 -0.831434 7.39465 -0.831434 3.16913 2.4943C-1.05638 5.82021 -1.05638 11.2125 3.16913 14.5383C6.20314 16.9264 10.5894 17.5992 14.3863 16.5587L23.392 26.3129C18.9448 30.4186 19.1818 36.5906 24.1128 40.4716C24.2075 40.5462 24.3049 40.616 24.4025 40.6881L15.6776 52.7412C12.0513 52.0662 8.07833 52.8399 5.25021 55.0663C0.90997 58.4826 0.90997 64.022 5.25021 67.4378C9.59045 70.8541 16.6279 70.8541 20.9679 67.4378C25.2628 64.0577 25.3052 58.5997 21.0997 55.1756L29.824 43.1238C34.2051 44.1139 39.1037 43.2949 42.6246 40.668L52.1528 45.5313C51.5445 47.7549 52.3354 50.1685 54.531 51.8965C57.9703 54.6036 63.5454 54.6036 66.9845 51.8965C70.4236 49.1899 70.4236 44.8014 66.9845 42.0944C63.8664 39.6411 58.9922 39.412 55.5464 41.4084ZM9.01548 59.3092C8.80404 59.4978 8.60505 59.676 8.40984 59.8295C8.1666 60.0207 7.83421 60.2538 7.42177 60.3541C6.90373 60.4799 6.37434 60.3692 5.96858 60.0498C4.90759 59.2149 5.31335 57.6349 6.91262 56.3767C8.51234 55.1175 10.5187 54.798 11.5801 55.6334C11.9857 55.9523 12.1264 56.3693 11.9663 56.7773C11.8392 57.1019 11.543 57.3642 11.3 57.555C11.1048 57.7083 10.8784 57.8649 10.6385 58.0313C10.3617 58.2231 10.0749 58.4214 9.79255 58.6433C9.51041 58.8654 9.25894 59.0911 9.01548 59.3092ZM52.6893 10.3549C54.2886 9.09607 56.2954 8.77634 57.3564 9.61163C57.7617 9.93066 57.9029 10.3475 57.7426 10.7556C57.6154 11.0804 57.3191 11.3426 57.0763 11.5337C56.8815 11.6868 56.6552 11.8434 56.415 12.0097C56.138 12.2017 55.8516 12.3998 55.5691 12.6218C55.2865 12.8443 55.0348 13.0702 54.7909 13.2882C54.5801 13.4765 54.3804 13.6552 54.1861 13.8085C53.9431 13.9998 53.61 14.2329 53.1976 14.3332C52.6791 14.459 52.15 14.3482 51.7444 14.0288C50.6841 13.1936 51.0899 11.6135 52.6893 10.3549ZM6.83503 6.62452C6.6287 6.80827 6.43504 6.98187 6.24628 7.13115C6.00993 7.31718 5.68577 7.54381 5.28378 7.64198C4.7793 7.76413 4.26392 7.65651 3.86883 7.34605C2.83585 6.53282 3.23161 4.99473 4.78886 3.76936C6.34589 2.54365 8.29911 2.2325 9.33254 3.04573C9.72741 3.35654 9.86503 3.76237 9.70873 4.15927C9.584 4.4755 9.29652 4.73065 9.05995 4.91633C8.87008 5.06578 8.64952 5.21856 8.41606 5.37973C8.14637 5.56628 7.86711 5.75949 7.59253 5.97579C7.3175 6.19227 7.07181 6.41242 6.83503 6.62452ZM26.0994 27.2583C28.0099 25.7543 30.4063 25.3728 31.6741 26.3705C32.1588 26.7522 32.3271 27.2497 32.1361 27.7373C31.9831 28.1254 31.6298 28.4382 31.3394 28.6669C31.1067 28.8501 30.8359 29.0365 30.5495 29.2353C30.2191 29.4647 29.8767 29.7011 29.5392 29.9666C29.2017 30.2324 28.9011 30.5018 28.6103 30.7624C28.3577 30.9876 28.12 31.2007 27.8874 31.3836C27.5971 31.6129 27.1998 31.8904 26.7066 32.0105C26.0876 32.1608 25.4553 32.0287 24.9699 31.647C23.7031 30.6484 24.1889 28.7623 26.0994 27.2583ZM57.036 45.8685C56.843 46.0201 56.5789 46.205 56.2525 46.2843C55.8421 46.3839 55.4234 46.2962 55.1013 46.0433C54.2602 45.3817 54.5814 44.13 55.8494 43.1325C57.1161 42.135 58.7062 41.882 59.5473 42.5442C59.8682 42.7967 59.9798 43.1269 59.8533 43.4505C59.7525 43.7079 59.5175 43.9153 59.3252 44.0667C59.1709 44.1878 58.9917 44.312 58.8016 44.4438C58.5828 44.5954 58.3552 44.7529 58.1317 44.9288C57.9078 45.1048 57.7077 45.2833 57.5156 45.4566C57.3477 45.6062 57.1899 45.7471 57.036 45.8685Z" fill="#46307B"/>
</svg>
