<svg width="35" height="35" viewBox="0 0 35 35" fill="none" xmlns="http://www.w3.org/2000/svg">
<path d="M22.9688 2.1875H20.5931C20.1425 0.914375 18.9263 0 17.5 0C16.0737 0 14.8575 0.914375 14.4047 2.1875H12.0312C11.4275 2.1875 10.9375 2.6775 10.9375 3.28125V7.65625C10.9375 8.26 11.4275 8.75 12.0312 8.75H22.9688C23.5725 8.75 24.0625 8.26 24.0625 7.65625V3.28125C24.0625 2.6775 23.5725 2.1875 22.9688 2.1875Z" fill="white"/>
<path d="M28.4375 4.375H26.25V7.65625C26.25 9.46531 24.7778 10.9375 22.9688 10.9375H12.0312C10.2222 10.9375 8.75 9.46531 8.75 7.65625V4.375H6.5625C5.35719 4.375 4.375 5.35719 4.375 6.5625V32.8125C4.375 34.0397 5.33531 35 6.5625 35H28.4375C29.6647 35 30.625 34.0397 30.625 32.8125V6.5625C30.625 5.33531 29.6647 4.375 28.4375 4.375ZM17.1806 23.7431L12.8056 28.1181C12.5913 28.3303 12.3113 28.4375 12.0312 28.4375C11.7512 28.4375 11.4712 28.3303 11.2569 28.1181L9.06937 25.9306C8.64281 25.5041 8.64281 24.8106 9.06937 24.3841C9.49594 23.9575 10.1894 23.9575 10.6159 24.3841L12.0312 25.7972L15.6319 22.1966C16.0584 21.77 16.7519 21.77 17.1784 22.1966C17.605 22.6231 17.6072 23.3144 17.1806 23.7431ZM17.1806 14.9931L12.8056 19.3681C12.5913 19.5803 12.3113 19.6875 12.0312 19.6875C11.7512 19.6875 11.4712 19.5803 11.2569 19.3681L9.06937 17.1806C8.64281 16.7541 8.64281 16.0606 9.06937 15.6341C9.49594 15.2075 10.1894 15.2075 10.6159 15.6341L12.0312 17.0472L15.6319 13.4466C16.0584 13.02 16.7519 13.02 17.1784 13.4466C17.605 13.8731 17.6072 14.5644 17.1806 14.9931ZM25.1562 26.25H20.7812C20.1775 26.25 19.6875 25.76 19.6875 25.1562C19.6875 24.5525 20.1775 24.0625 20.7812 24.0625H25.1562C25.76 24.0625 26.25 24.5525 26.25 25.1562C26.25 25.76 25.76 26.25 25.1562 26.25ZM25.1562 17.5H20.7812C20.1775 17.5 19.6875 17.01 19.6875 16.4062C19.6875 15.8025 20.1775 15.3125 20.7812 15.3125H25.1562C25.76 15.3125 26.25 15.8025 26.25 16.4062C26.25 17.01 25.76 17.5 25.1562 17.5Z" fill="white"/>
</svg>
