<svg width="20" height="20" viewBox="0 0 20 20" fill="none" xmlns="http://www.w3.org/2000/svg">
<path d="M14.1667 1.24999H12.3567C12.0133 0.522496 11.0867 0 10 0C8.91333 0 7.98667 0.522496 7.64167 1.24999H5.83333C5.37333 1.24999 5 1.52999 5 1.87498V4.37496C5 4.71996 5.37333 4.99996 5.83333 4.99996H14.1667C14.6267 4.99996 15 4.71996 15 4.37496V1.87498C15 1.52999 14.6267 1.24999 14.1667 1.24999Z" fill="white" fill-opacity="0.35"/>
<path d="M18.3333 2.49997H16.6667V4.37497C16.6667 5.40873 15.545 6.24998 14.1667 6.24998H5.83333C4.455 6.24998 3.33333 5.40873 3.33333 4.37497V2.49997H1.66667C0.748333 2.49997 0 3.06122 0 3.74997V18.75C0 19.4513 0.731667 20 1.66667 20H18.3333C19.2683 20 20 19.4513 20 18.75V3.74997C20 3.04872 19.2683 2.49997 18.3333 2.49997ZM9.75667 13.5675L6.42333 16.0675C6.26 16.1887 6.04667 16.25 5.83333 16.25C5.62 16.25 5.40667 16.1887 5.24333 16.0675L3.57667 14.8175C3.25167 14.5737 3.25167 14.1775 3.57667 13.9337C3.90167 13.69 4.43 13.69 4.755 13.9337L5.83333 14.7412L8.57667 12.6837C8.90167 12.44 9.43 12.44 9.755 12.6837C10.08 12.9275 10.0817 13.3225 9.75667 13.5675ZM9.75667 8.56748L6.42333 11.0675C6.26 11.1887 6.04667 11.25 5.83333 11.25C5.62 11.25 5.40667 11.1887 5.24333 11.0675L3.57667 9.81748C3.25167 9.57373 3.25167 9.17748 3.57667 8.93373C3.90167 8.68998 4.43 8.68998 4.755 8.93373L5.83333 9.74123L8.57667 7.68373C8.90167 7.43998 9.43 7.43998 9.755 7.68373C10.08 7.92748 10.0817 8.32248 9.75667 8.56748ZM15.8333 15H12.5C12.04 15 11.6667 14.72 11.6667 14.375C11.6667 14.03 12.04 13.75 12.5 13.75H15.8333C16.2933 13.75 16.6667 14.03 16.6667 14.375C16.6667 14.72 16.2933 15 15.8333 15ZM15.8333 9.99999H12.5C12.04 9.99999 11.6667 9.71998 11.6667 9.37498C11.6667 9.02998 12.04 8.74998 12.5 8.74998H15.8333C16.2933 8.74998 16.6667 9.02998 16.6667 9.37498C16.6667 9.71998 16.2933 9.99999 15.8333 9.99999Z" fill="white" fill-opacity="0.35"/>
</svg>
