<svg width="16" height="16" viewBox="0 0 16 16" fill="none" xmlns="http://www.w3.org/2000/svg">
<path d="M11.3333 0.999992H9.88534C9.61067 0.417997 8.86934 0 8 0C7.13067 0 6.38933 0.417997 6.11333 0.999992H4.66667C4.29867 0.999992 4 1.22399 4 1.49999V3.49997C4 3.77597 4.29867 3.99997 4.66667 3.99997H11.3333C11.7013 3.99997 12 3.77597 12 3.49997V1.49999C12 1.22399 11.7013 0.999992 11.3333 0.999992Z" fill="#39236E"/>
<path d="M14.6667 1.99997H13.3333V3.49997C13.3333 4.32697 12.436 4.99998 11.3333 4.99998H4.66667C3.564 4.99998 2.66667 4.32697 2.66667 3.49997V1.99997H1.33333C0.598667 1.99997 0 2.44897 0 2.99997V15C0 15.561 0.585333 16 1.33333 16H14.6667C15.4147 16 16 15.561 16 15V2.99997C16 2.43897 15.4147 1.99997 14.6667 1.99997ZM7.80533 10.854L5.13867 12.854C5.008 12.951 4.83733 13 4.66667 13C4.496 13 4.32533 12.951 4.19467 12.854L2.86133 11.854C2.60133 11.659 2.60133 11.342 2.86133 11.147C3.12133 10.952 3.544 10.952 3.804 11.147L4.66667 11.793L6.86133 10.147C7.12133 9.95199 7.544 9.95199 7.804 10.147C8.064 10.342 8.06533 10.658 7.80533 10.854ZM7.80533 6.85398L5.13867 8.85398C5.008 8.95098 4.83733 8.99998 4.66667 8.99998C4.496 8.99998 4.32533 8.95098 4.19467 8.85398L2.86133 7.85398C2.60133 7.65898 2.60133 7.34198 2.86133 7.14698C3.12133 6.95198 3.544 6.95198 3.804 7.14698L4.66667 7.79298L6.86133 6.14698C7.12133 5.95198 7.544 5.95198 7.804 6.14698C8.064 6.34198 8.06533 6.65798 7.80533 6.85398ZM12.6667 12H10C9.632 12 9.33333 11.776 9.33333 11.5C9.33333 11.224 9.632 11 10 11H12.6667C13.0347 11 13.3333 11.224 13.3333 11.5C13.3333 11.776 13.0347 12 12.6667 12ZM12.6667 7.99998H10C9.632 7.99998 9.33333 7.77598 9.33333 7.49998C9.33333 7.22398 9.632 6.99998 10 6.99998H12.6667C13.0347 6.99998 13.3333 7.22398 13.3333 7.49998C13.3333 7.77598 13.0347 7.99998 12.6667 7.99998Z" fill="#39236E"/>
</svg>
