<svg width="20" height="20" viewBox="0 0 20 20" fill="none" xmlns="http://www.w3.org/2000/svg">
<path d="M6.89844 16.9492V20H7.58809V16.6102H7.24326C7.05292 16.6102 6.89844 16.7621 6.89844 16.9492Z" fill="white" fill-opacity="0.35"/>
<path d="M0 18.9831V20H6.2069V18.6441H0.344828C0.154483 18.6441 0 18.796 0 18.9831Z" fill="white" fill-opacity="0.35"/>
<path d="M19.655 18.6441H13.793V20H19.9999V18.9831C19.9999 18.796 19.8454 18.6441 19.655 18.6441Z" fill="white" fill-opacity="0.35"/>
<path d="M12.7589 16.6102H12.4141V20H13.1037V16.9492C13.1037 16.7621 12.9492 16.6102 12.7589 16.6102Z" fill="white" fill-opacity="0.35"/>
<path d="M8.27734 16.6102H11.7256V20H8.27734V16.6102Z" fill="white" fill-opacity="0.35"/>
<path d="M10.0015 3.38983C10.9537 3.38983 11.7256 2.63099 11.7256 1.69492C11.7256 0.75884 10.9537 0 10.0015 0C9.04927 0 8.27734 0.75884 8.27734 1.69492C8.27734 2.63099 9.04927 3.38983 10.0015 3.38983Z" fill="white" fill-opacity="0.35"/>
<path d="M10.0011 6.77967C10.1915 6.77967 10.3459 6.6279 10.3459 6.44068C10.3459 6.25346 10.1915 6.10168 10.0011 6.10168C9.81063 6.10168 9.65625 6.25346 9.65625 6.44068C9.65625 6.6279 9.81063 6.77967 10.0011 6.77967Z" fill="white" fill-opacity="0.35"/>
<path d="M12.7594 8.81355V6.10169C12.7594 5.15356 12.2636 4.32035 11.5139 3.8356L10.4936 5.55221C10.8146 5.72475 11.0353 6.05627 11.0353 6.44068C11.0353 7.00135 10.5712 7.45762 10.0008 7.45762C9.43046 7.45762 8.96633 7.00135 8.96633 6.44068C8.96633 6.05627 9.18702 5.72475 9.50805 5.55221L8.4877 3.8356C7.73805 4.32035 7.24219 5.15356 7.24219 6.10169V8.81355C7.24219 9.37524 7.70529 9.83049 8.27667 9.83049H8.6215V15.5932C8.6215 15.9678 8.93012 16.2711 9.31115 16.2711C9.69219 16.2711 10.0008 15.9678 10.0008 15.5932C10.0008 15.9678 10.3094 16.2711 10.6905 16.2711C11.0715 16.2711 11.3801 15.9678 11.3801 15.5932V9.83049H11.7249C12.2963 9.83049 12.7594 9.37524 12.7594 8.81355V8.81355Z" fill="white" fill-opacity="0.35"/>
<path d="M9.99938 5.00479L10.8894 3.53695C10.6097 3.44305 10.3111 3.38983 9.99938 3.38983C9.68765 3.38983 9.38903 3.44305 9.10938 3.53662L9.99938 5.00479Z" fill="white" fill-opacity="0.35"/>
<path d="M16.896 5.42377C17.8482 5.42377 18.6202 4.66493 18.6202 3.72885C18.6202 2.79278 17.8482 2.03394 16.896 2.03394C15.9438 2.03394 15.1719 2.79278 15.1719 3.72885C15.1719 4.66493 15.9438 5.42377 16.896 5.42377Z" fill="white" fill-opacity="0.35"/>
<path d="M15.1712 11.8645H15.516V17.6272C15.516 18.0018 15.8247 18.3051 16.2057 18.3051C16.5867 18.3051 16.8953 18.0018 16.8953 17.6272C16.8953 18.0018 17.204 18.3051 17.585 18.3051C17.966 18.3051 18.2747 18.0018 18.2747 17.6272V11.8645H18.6195C19.1909 11.8645 19.654 11.4092 19.654 10.8475V8.13564C19.654 6.63801 18.4188 5.42377 16.8953 5.42377C15.3719 5.42377 14.1367 6.63801 14.1367 8.13564V10.8475C14.1367 11.4092 14.5998 11.8645 15.1712 11.8645Z" fill="white" fill-opacity="0.35"/>
<path d="M3.10305 5.42377C4.05526 5.42377 4.82719 4.66493 4.82719 3.72885C4.82719 2.79278 4.05526 2.03394 3.10305 2.03394C2.15083 2.03394 1.37891 2.79278 1.37891 3.72885C1.37891 4.66493 2.15083 5.42377 3.10305 5.42377Z" fill="white" fill-opacity="0.35"/>
<path d="M1.37823 11.8645H1.72306V17.6272C1.72306 18.0018 2.03168 18.3051 2.41272 18.3051C2.79375 18.3051 3.10237 18.0018 3.10237 17.6272C3.10237 18.0018 3.41099 18.3051 3.79203 18.3051C4.17306 18.3051 4.48168 18.0018 4.48168 17.6272V11.8645H4.82651C5.39789 11.8645 5.86099 11.4092 5.86099 10.8475V8.13564C5.86099 6.63801 4.62582 5.42377 3.10237 5.42377C1.57892 5.42377 0.34375 6.63801 0.34375 8.13564V10.8475C0.34375 11.4092 0.806853 11.8645 1.37823 11.8645Z" fill="white" fill-opacity="0.35"/>
</svg>
