<svg width="35" height="35" viewBox="0 0 35 35" fill="none" xmlns="http://www.w3.org/2000/svg">
<path d="M12.5781 28.4375V33.3594H13.6719V27.8906H13.125C12.8231 27.8906 12.5781 28.1356 12.5781 28.4375Z" fill="white"/>
<path d="M1.64062 31.7188V33.3594H11.4844V31.1719H2.1875C1.88563 31.1719 1.64062 31.4169 1.64062 31.7188Z" fill="white"/>
<path d="M32.8125 31.1719H23.5156V33.3594H33.3594V31.7188C33.3594 31.4169 33.1144 31.1719 32.8125 31.1719Z" fill="white"/>
<path d="M21.875 27.8906H21.3281V33.3594H22.4219V28.4375C22.4219 28.1356 22.1769 27.8906 21.875 27.8906Z" fill="white"/>
<path d="M14.7656 27.8906H20.2344V33.3594H14.7656V27.8906Z" fill="white"/>
<path d="M17.5 6.5625C19.0102 6.5625 20.2344 5.33828 20.2344 3.82812C20.2344 2.31797 19.0102 1.09375 17.5 1.09375C15.9898 1.09375 14.7656 2.31797 14.7656 3.82812C14.7656 5.33828 15.9898 6.5625 17.5 6.5625Z" fill="white"/>
<path d="M17.5 12.0312C17.802 12.0312 18.0469 11.7864 18.0469 11.4844C18.0469 11.1823 17.802 10.9375 17.5 10.9375C17.198 10.9375 16.9531 11.1823 16.9531 11.4844C16.9531 11.7864 17.198 12.0312 17.5 12.0312Z" fill="white"/>
<path d="M21.875 15.3126V10.9376C21.875 9.40799 21.0886 8.06377 19.8997 7.28174L18.2815 10.0511C18.7906 10.3295 19.1406 10.8643 19.1406 11.4845C19.1406 12.389 18.4045 13.1251 17.5 13.1251C16.5955 13.1251 15.8594 12.389 15.8594 11.4845C15.8594 10.8643 16.2094 10.3295 16.7185 10.0511L15.1003 7.28174C13.9114 8.06377 13.125 9.40799 13.125 10.9376V15.3126C13.125 16.2188 13.8595 16.9532 14.7656 16.9532H15.3125V26.2501C15.3125 26.8544 15.802 27.3438 16.4062 27.3438C17.0105 27.3438 17.5 26.8544 17.5 26.2501C17.5 26.8544 17.9895 27.3438 18.5938 27.3438C19.198 27.3438 19.6875 26.8544 19.6875 26.2501V16.9532H20.2344C21.1405 16.9532 21.875 16.2188 21.875 15.3126V15.3126Z" fill="white"/>
<path d="M17.5013 9.16781L18.9128 6.79984C18.4693 6.64836 17.9957 6.5625 17.5013 6.5625C17.0069 6.5625 16.5334 6.64836 16.0898 6.7993L17.5013 9.16781Z" fill="white"/>
<path d="M28.4375 9.84375C29.9477 9.84375 31.1719 8.61953 31.1719 7.10938C31.1719 5.59922 29.9477 4.375 28.4375 4.375C26.9273 4.375 25.7031 5.59922 25.7031 7.10938C25.7031 8.61953 26.9273 9.84375 28.4375 9.84375Z" fill="white"/>
<path d="M25.7031 20.2344H26.25V29.5312C26.25 30.1355 26.7395 30.625 27.3438 30.625C27.948 30.625 28.4375 30.1355 28.4375 29.5312C28.4375 30.1355 28.927 30.625 29.5312 30.625C30.1355 30.625 30.625 30.1355 30.625 29.5312V20.2344H31.1719C32.078 20.2344 32.8125 19.4999 32.8125 18.5938V14.2188C32.8125 11.8027 30.8536 9.84375 28.4375 9.84375C26.0214 9.84375 24.0625 11.8027 24.0625 14.2188V18.5938C24.0625 19.4999 24.797 20.2344 25.7031 20.2344Z" fill="white"/>
<path d="M6.5625 9.84375C8.07265 9.84375 9.29688 8.61953 9.29688 7.10938C9.29688 5.59922 8.07265 4.375 6.5625 4.375C5.05235 4.375 3.82812 5.59922 3.82812 7.10938C3.82812 8.61953 5.05235 9.84375 6.5625 9.84375Z" fill="white"/>
<path d="M3.82812 20.2344H4.375V29.5312C4.375 30.1355 4.86445 30.625 5.46875 30.625C6.07305 30.625 6.5625 30.1355 6.5625 29.5312C6.5625 30.1355 7.05195 30.625 7.65625 30.625C8.26055 30.625 8.75 30.1355 8.75 29.5312V20.2344H9.29688C10.203 20.2344 10.9375 19.4999 10.9375 18.5938V14.2188C10.9375 11.8027 8.97859 9.84375 6.5625 9.84375C4.14641 9.84375 2.1875 11.8027 2.1875 14.2188V18.5938C2.1875 19.4999 2.92195 20.2344 3.82812 20.2344Z" fill="white"/>
</svg>
