<svg width="16" height="16" viewBox="0 0 16 16" fill="none" xmlns="http://www.w3.org/2000/svg">
<path d="M5.51953 13.5593V16H6.07125V13.2881H5.79539C5.64312 13.2881 5.51953 13.4096 5.51953 13.5593Z" fill="#39236E"/>
<path d="M0 15.1865V16H4.96555V14.9153H0.275864C0.123587 14.9153 0 15.0368 0 15.1865Z" fill="#39236E"/>
<path d="M15.7248 14.9153H11.0352V16H16.0007V15.1865C16.0007 15.0368 15.8771 14.9153 15.7248 14.9153Z" fill="#39236E"/>
<path d="M10.2055 13.2881H9.92969V16H10.4814V13.5593C10.4814 13.4096 10.3578 13.2881 10.2055 13.2881Z" fill="#39236E"/>
<path d="M6.62109 13.2881H9.37973V16H6.62109V13.2881Z" fill="#39236E"/>
<path d="M8.00041 2.71187C8.76219 2.71187 9.37973 2.10479 9.37973 1.35593C9.37973 0.607072 8.76219 0 8.00041 0C7.23864 0 6.62109 0.607072 6.62109 1.35593C6.62109 2.10479 7.23864 2.71187 8.00041 2.71187Z" fill="#39236E"/>
<path d="M8.00243 5.42374C8.15478 5.42374 8.27829 5.30232 8.27829 5.15254C8.27829 5.00277 8.15478 4.88135 8.00243 4.88135C7.85007 4.88135 7.72656 5.00277 7.72656 5.15254C7.72656 5.30232 7.85007 5.42374 8.00243 5.42374Z" fill="#39236E"/>
<path d="M10.2068 7.05084V4.88136C10.2068 4.12285 9.8101 3.45628 9.21037 3.06848L8.39409 4.44176C8.65092 4.5798 8.82747 4.84502 8.82747 5.15254C8.82747 5.60108 8.45616 5.9661 7.99988 5.9661C7.5436 5.9661 7.17229 5.60108 7.17229 5.15254C7.17229 4.84502 7.34884 4.5798 7.60567 4.44176L6.78939 3.06848C6.18966 3.45628 5.79297 4.12285 5.79297 4.88136V7.05084C5.79297 7.50019 6.16345 7.8644 6.62056 7.8644H6.89642V12.4745C6.89642 12.7742 7.14332 13.0169 7.44815 13.0169C7.75298 13.0169 7.99988 12.7742 7.99988 12.4745C7.99988 12.7742 8.24678 13.0169 8.55161 13.0169C8.85644 13.0169 9.10334 12.7742 9.10334 12.4745V7.8644H9.3792C9.83631 7.8644 10.2068 7.50019 10.2068 7.05084V7.05084Z" fill="#39236E"/>
<path d="M8.00107 4.00382L8.71307 2.82955C8.48935 2.75443 8.25045 2.71185 8.00107 2.71185C7.75169 2.71185 7.51279 2.75443 7.28906 2.82928L8.00107 4.00382Z" fill="#39236E"/>
<path d="M13.516 4.339C14.2778 4.339 14.8954 3.73193 14.8954 2.98307C14.8954 2.23421 14.2778 1.62714 13.516 1.62714C12.7543 1.62714 12.1367 2.23421 12.1367 2.98307C12.1367 3.73193 12.7543 4.339 13.516 4.339Z" fill="#39236E"/>
<path d="M12.1362 9.49157H12.412V14.1017C12.412 14.4014 12.6589 14.6441 12.9638 14.6441C13.2686 14.6441 13.5155 14.4014 13.5155 14.1017C13.5155 14.4014 13.7624 14.6441 14.0672 14.6441C14.3721 14.6441 14.619 14.4014 14.619 14.1017V9.49157H14.8948C15.3519 9.49157 15.7224 9.12737 15.7224 8.67801V6.50851C15.7224 5.31041 14.7343 4.33902 13.5155 4.33902C12.2967 4.33902 11.3086 5.31041 11.3086 6.50851V8.67801C11.3086 9.12737 11.6791 9.49157 12.1362 9.49157Z" fill="#39236E"/>
<path d="M2.48088 4.339C3.24266 4.339 3.86021 3.73193 3.86021 2.98307C3.86021 2.23421 3.24266 1.62714 2.48088 1.62714C1.71911 1.62714 1.10156 2.23421 1.10156 2.98307C1.10156 3.73193 1.71911 4.339 2.48088 4.339Z" fill="#39236E"/>
<path d="M1.10103 9.49157H1.37689V14.1017C1.37689 14.4014 1.62379 14.6441 1.92862 14.6441C2.23345 14.6441 2.48035 14.4014 2.48035 14.1017C2.48035 14.4014 2.72725 14.6441 3.03208 14.6441C3.33691 14.6441 3.5838 14.4014 3.5838 14.1017V9.49157H3.85967C4.31677 9.49157 4.68726 9.12737 4.68726 8.67801V6.50851C4.68726 5.31041 3.69912 4.33902 2.48035 4.33902C1.26158 4.33902 0.273438 5.31041 0.273438 6.50851V8.67801C0.273438 9.12737 0.643923 9.49157 1.10103 9.49157Z" fill="#39236E"/>
</svg>
