<svg width="16" height="16" viewBox="0 0 16 16" fill="none" xmlns="http://www.w3.org/2000/svg">
<path d="M5.96875 0H5.03125V1.78125H5.96875V0Z" fill="#39236E"/>
<path d="M8.46875 0.3125H7.53125V1.78125H8.46875V0.3125Z" fill="#39236E"/>
<path d="M10.9688 0.9375H10.0312V1.78125H10.9688V0.9375Z" fill="#39236E"/>
<path d="M4.34375 2.71875V8.15625H11.6562V2.71875H4.34375ZM7.55806 7.36594L6.12175 5.92966L6.78466 5.26675L7.55806 6.04012L9.21534 4.38284L9.87825 5.04575L7.55806 7.36594Z" fill="#39236E"/>
<path d="M14.3037 5.6875H12.5938V9.09375H3.40625V5.6875H1.69631L0 10.6407V10.6875H16V10.6407L14.3037 5.6875Z" fill="#39236E"/>
<path d="M16 11.625H0V16H16V11.625Z" fill="#39236E"/>
</svg>
