<svg width="20" height="20" viewBox="0 0 20 20" fill="none" xmlns="http://www.w3.org/2000/svg">
<g clip-path="url(#clip0)">
<path d="M19.6457 8.56832C19.4383 8.25521 19.124 8.03945 18.7586 7.95766C18.9943 7.50677 18.9847 6.94417 18.6844 6.49084C18.4708 6.16811 18.1485 5.95968 17.7977 5.88079C17.8603 5.76146 17.9065 5.63268 17.9341 5.49688C18.0107 5.11922 17.936 4.73439 17.7231 4.4132C17.5157 4.09993 17.2014 3.88417 16.836 3.80254C17.0717 3.35164 17.0621 2.78905 16.7618 2.33556C16.3228 1.67256 15.4259 1.49022 14.7627 1.92937L13.3269 2.8803C12.5615 2.49211 11.7474 2.21669 10.9026 2.05983C10.6355 1.65441 10.325 1.27751 9.97742 0.940599L9.3834 0.364885C8.94837 -0.0568686 8.26615 -0.120193 7.76108 0.214433C7.16355 0.610094 6.99936 1.4182 7.39503 2.01573C7.41059 2.03939 7.42585 2.06319 7.44095 2.08699C5.49378 2.48098 3.71918 3.5143 2.4057 5.02843C0.980378 6.67165 0.195312 8.77615 0.195312 10.9542C0.195312 11.3717 0.223846 11.7899 0.280304 12.197C0.715332 15.3618 2.82349 18.0892 5.78186 19.3149C6.87897 19.7697 8.04307 20.0004 9.24134 20.0004C11.1391 20.0004 12.9556 19.4192 14.4948 18.3198C16.0005 17.244 17.1271 15.7595 17.7529 14.0267C17.8113 13.8653 17.7275 13.6869 17.5661 13.6286C17.4045 13.5703 17.2263 13.6539 17.168 13.8155C16.5852 15.4291 15.5359 16.8116 14.1332 17.8136C12.7002 18.8373 11.0086 19.3784 9.24134 19.3784C8.32764 19.3784 7.43546 19.2342 6.58158 18.9498L9.11179 17.2742C9.11195 17.2741 9.1121 17.2741 9.11225 17.2739C9.1124 17.2739 9.1124 17.2738 9.11256 17.2736L11.2154 15.8811H11.2155C11.4043 15.756 11.5332 15.5649 11.5784 15.3429C11.6235 15.1209 11.5796 14.8945 11.4545 14.7057L11.4267 14.6636L11.8352 14.3931C12.1266 14.2 12.4771 14.1244 12.8223 14.1797C13.322 14.26 13.8295 14.1501 14.2513 13.8708L17.6393 11.6271C17.6161 11.921 17.578 12.2132 17.5247 12.5005C17.4933 12.6694 17.6048 12.8318 17.7738 12.8631C17.7928 12.8667 17.8121 12.8684 17.8308 12.8684C17.9778 12.8684 18.1084 12.7637 18.1362 12.614C18.2224 12.1503 18.272 11.6753 18.2848 11.1997L19.2395 10.5674C19.5607 10.3547 19.78 10.0295 19.8566 9.652C19.9333 9.27435 19.8584 8.88952 19.6457 8.56832V8.56832ZM12.7231 3.28008L11.7729 3.90935L11.5859 3.40535C11.5077 3.19509 11.4182 2.98894 11.319 2.78722C11.801 2.90944 12.2704 3.07424 12.7231 3.28008ZM2.87552 5.43599C4.13788 3.98076 5.8574 3.00252 7.7385 2.66332C8.04032 3.39452 8.11265 4.21148 7.93229 4.99013L7.17408 8.26574C7.05491 8.13848 6.90018 8.05074 6.72593 8.01534C6.50376 7.97002 6.27747 8.01412 6.08872 8.13924L3.94104 9.56136C3.94089 9.56136 3.94089 9.56136 3.94074 9.56152C3.94074 9.56152 3.94059 9.56152 3.94059 9.56167L0.843049 11.6129C0.826111 11.3944 0.817261 11.1742 0.817261 10.9542C0.817261 8.92599 1.54831 6.96615 2.87552 5.43599V5.43599ZM10.9689 15.2189C10.9569 15.2781 10.9224 15.3292 10.8719 15.3626H10.872L9.02512 16.5856L5.59723 11.4734C5.50156 11.3308 5.30838 11.2928 5.16571 11.3885C5.0232 11.4841 4.98505 11.6771 5.08072 11.8198L8.50648 16.9291L5.86991 18.6751C3.24997 17.5292 1.37512 15.1092 0.924378 12.2931L4.02558 10.2462L4.38248 10.7787C4.4426 10.8681 4.54087 10.9165 4.64112 10.9165C4.70063 10.9165 4.7609 10.8996 4.814 10.8639C4.95667 10.7682 4.99482 10.575 4.89914 10.4323L4.54468 9.90362L6.43219 8.65774C6.4824 8.62432 6.54267 8.61272 6.60187 8.62478C6.66108 8.63683 6.71219 8.67132 6.74561 8.72167L10.936 15.0492C10.9692 15.0994 10.981 15.1597 10.9689 15.2189V15.2189ZM19.2471 9.5281C19.2035 9.74294 19.0788 9.92788 18.896 10.0489L17.8046 10.7717C17.8043 10.7718 17.804 10.7721 17.8035 10.7723L13.9078 13.3523C13.6163 13.5453 13.2658 13.6211 12.9207 13.5656C12.4211 13.4855 11.9136 13.5952 11.4917 13.8746L11.0832 14.1451L7.65122 8.96276L8.53837 5.13051C8.76679 4.14327 8.6464 3.10338 8.21122 2.19747C8.20725 2.18801 8.20298 2.17885 8.1981 2.16985C8.11448 1.99864 8.01957 1.83248 7.91352 1.67226C7.70722 1.36067 7.79282 0.939378 8.10456 0.732927C8.36793 0.558519 8.72376 0.591478 8.95051 0.811357L9.54453 1.38722C10.1871 2.01024 10.6914 2.78295 11.0027 3.62188L11.3261 4.49331C11.3268 4.49498 11.3274 4.49636 11.328 4.49788C11.3287 4.49987 11.3297 4.502 11.3304 4.50399C11.3327 4.50933 11.3348 4.51421 11.3371 4.51833C11.3434 4.53145 11.3503 4.54442 11.3585 4.55678C11.4534 4.70006 11.6463 4.73928 11.7894 4.64437L15.1062 2.44802C15.4834 2.19823 15.9935 2.30184 16.2433 2.67903C16.4931 3.05623 16.3895 3.56633 16.0123 3.81612L15.7243 4.00686C15.7243 4.00686 15.7242 4.00686 15.724 4.00701L15.0818 4.43242C15.0809 4.43303 15.0803 4.43364 15.0794 4.4341C15.0757 4.4367 15.0722 4.43914 15.0693 4.44158C14.9365 4.53908 14.9022 4.72448 14.9942 4.86333C15.089 5.00661 15.282 5.04583 15.4253 4.95092L16.068 4.5252C16.2506 4.4045 16.4693 4.36193 16.684 4.40557C16.8987 4.44921 17.0838 4.57387 17.2046 4.75667C17.3256 4.93932 17.3683 5.15828 17.3247 5.37298C17.281 5.58782 17.1564 5.77276 16.9736 5.89376L16.0431 6.51006C15.8998 6.60482 15.8606 6.79769 15.9555 6.94097C16.0153 7.0313 16.1142 7.08028 16.2151 7.08028C16.274 7.08028 16.3336 7.0635 16.3864 7.02856L16.5305 6.93319L17.0288 6.60314C17.4062 6.35335 17.9161 6.45696 18.1659 6.83416C18.4157 7.21151 18.3121 7.72146 17.9349 7.9714L17.4701 8.27917C17.4677 8.28069 17.4652 8.28237 17.4628 8.28405L17.0044 8.58755C16.8611 8.6823 16.8219 8.87533 16.9168 9.01861C16.9766 9.10894 17.0755 9.15792 17.1764 9.15792C17.2353 9.15792 17.2949 9.14114 17.3477 9.10619L17.4918 9.01083C17.4918 9.01083 17.4918 9.01067 17.4919 9.01067L17.9903 8.68078C18.1729 8.55978 18.3917 8.51705 18.6066 8.56084C18.8214 8.60433 19.0064 8.72915 19.1274 8.9118C19.2482 9.09444 19.2908 9.31341 19.2471 9.5281V9.5281Z" fill="white"/>
</g>
<defs>
<clipPath id="clip0">
<rect width="20" height="20" fill="white"/>
</clipPath>
</defs>
</svg>
